<?xml version="1.0" standalone="no"?>
<!DOCTYPE svg PUBLIC "-//W3C//DTD SVG 20010904//EN"
 "http://www.w3.org/TR/2001/REC-SVG-20010904/DTD/svg10.dtd">
<svg version="1.0" xmlns="http://www.w3.org/2000/svg"
 width="48.000000pt" height="48.000000pt" viewBox="0 0 48.000000 48.000000"
 preserveAspectRatio="xMidYMid meet">

<g transform="translate(0.000000,48.000000) scale(0.100000,-0.100000)"
fill="#000000" stroke="none">
<path d="M138 379 c-97 -60 -98 -61 -98 -100 0 -21 5 -39 10 -39 6 0 10 -27
10 -60 0 -33 -4 -60 -10 -60 -5 0 -10 -13 -10 -30 l0 -30 200 0 200 0 0 30 c0
17 -4 30 -10 30 -6 0 -10 27 -10 60 0 33 4 60 10 60 6 0 10 18 10 39 0 39 -1
40 -100 100 -56 34 -102 61 -103 60 -1 0 -46 -28 -99 -60z m132 -34 c26 -32
-13 -81 -47 -59 -23 14 -28 41 -13 59 16 19 44 19 60 0z m-110 -165 c0 -53 -2
-60 -20 -60 -18 0 -20 7 -20 60 0 53 2 60 20 60 18 0 20 -7 20 -60z m100 0 c0
-53 -2 -60 -20 -60 -18 0 -20 7 -20 60 0 53 2 60 20 60 18 0 20 -7 20 -60z
m100 0 c0 -53 -2 -60 -20 -60 -18 0 -20 7 -20 60 0 53 2 60 20 60 18 0 20 -7
20 -60z"/>
</g>
</svg>
